<svg xmlns="http://www.w3.org/2000/svg" viewBox="0 0 1007 722"><path d="M1007.5,721.5H.5V-.5h1007ZM589,688c2.27-6.2-2.12-7.53-7-33-4-20.94-1.77-23.85-6-56-2.8-21.28-3.93-21.18-5-35-1.36-17.6.2-21.41,0-42-.35-35.59-5.11-35.38-3-56,1.33-12.94,2.92-10.3,11-45,5.12-22,8.24-39.23,10-49,4-22,6.41-39.46,7-44,3.24-24.95,2.8-31.15,7-45,3.11-10.25,4.11-9.89,14-33,11.77-27.51,9-25.13,22-57,6.59-16.1,10-23.26,12-36,1.75-11.15,4.15-26.41-4-32-5.46-3.75-14.65-2.46-20,2-3.83,3.2-5,7.43-6,11,0,0-4.88,17.14-11,33-2.74,7.12-2.72,4.49-17,30-6.37,11.38-9.56,17.07-12,22-11.61,23.42-11.73,32-19,34-6.58,1.83-15.26-2.75-17-8-.88-2.65.39-4.33,1-11a60.89,60.89,0,0,0,0-11c.65-5.58,2.35-20.38,3-26,2.36-20.48,2.63-23,3-27,.41-4.53,1.53-17.42,2-34,.38-13.37-.12-12.73,0-35,.07-12-.47-24,0-36,.58-14.56,1.65-22.68-4-29a18.64,18.64,0,0,0-11-6c-.43-.06-8.29-1.08-14,4-4.86,4.32-5.46,10.64-6,16-1.45,14.36-3.86,28.62-5,43-1.08,13.58-1.66,20.8-3,31-1.8,13.7-2.47,13.79-4,26-1.78,14.13-2.89,23-3,35-.15,16.52,1.74,26.26-4,30-.25.16-3.29,2.08-6,1-5.23-2.09-4.88-13.56-5-24-.23-19.47-1.68-.37-3-42-.85-26.73,0-27.64-1-47-1.18-23.5-2.33-21.12-2-32,.55-18.06,3.73-24.54,2-41-1.17-11.19-2.3-20.7-9-24-6.4-3.15-15.1.76-20,5-4.67,4-7.18,9.47-10,25-2.23,12.28-2.39,18.37-4,36-2,22.31-4,39-4,39-1.58,13.42-2,14.85-2,20-.06,10.5,1.54,12.66,4,31,2.91,21.68.57,17.9,3,31,2.13,11.49,4.43,17.16,1,21-2.9,3.25-8.9,4.06-13,2-3.67-1.85-5.14-5.66-6-8-4.76-12.93-7.14-19.39-9-28-3.23-14.94-4.91-11.42-12-36-5-17.46-3.44-16.66-7-26-5.27-13.86-9.06-16.38-14-30-2.32-6.4-1.65-6.29-6-24-8.3-33.77-11.91-38.86-17-41a16.15,16.15,0,0,0-14,1c-8.85,5.26-8.93,19.32-9,31,0,7,.66,11.41,4,31,3,17.41,4.46,26.11,5,29,4.66,24.81,7,37.22,10,49,9.79,38.31,17.28,41.43,20,69,.61,6.16.74,14.1,1,30,.25,15.17.06,27-2,41-1.35,9.16-2.74,14.08-5,19-3.77,8.2-8.62,13.34-12,17-7.51,8.14-16.68,18.07-29,19-4.26.32-9.51-.39-24-9a196.41,196.41,0,0,1-35-26c-14.58-13.31-11.83-13.32-21-21-10.95-9.17-32.95-27.59-53-21-6.44,2.12-16.24,8-17,16-.95,10,12.94,14.26,36,39,9.59,10.28,7.86,10.26,18,21,16.63,17.6,20.55,16.88,34,31,17.46,18.32,14.1,22.93,30,37,4.42,3.91,12.61,9.27,29,20,22.45,14.69,22.89,13.76,34,22,12.3,9.12,23.17,18.72,28,23,6,5.34,10.82,9.85,12,11,20.71,20,26,63.77,27,73,10.08,90.25,4.12,91.88,12,103C470.68,726.68,578.53,716.63,589,688Z" style="stroke:#000;stroke-miterlimit:10;opacity:0.47000000000000003"/><g style="opacity:0.47000000000000003"><path d="M419.74,512.16a176,176,0,0,1,61.06-3.81c8.89,1,17.7,3.2,26.67,3.44a63.36,63.36,0,0,0,28.75-6.4,87.1,87.1,0,0,0,24.34-17.83c1.36-1.38-.76-3.5-2.12-2.12-13.09,13.27-30.28,23.37-49.39,23.38-8.75,0-17.36-2.06-26-3.19a167.7,167.7,0,0,0-27.25-1.36,187.87,187.87,0,0,0-36.86,5c-1.88.45-1.08,3.34.8,2.9Z"/></g></svg>