<svg xmlns="http://www.w3.org/2000/svg" viewBox="0 0 1280 800"><path d="M1280,800.29H0V.5H1280ZM811.91,762.18c2.51-6.86-2.35-8.34-7.76-36.55-4.44-23.2-2-26.43-6.64-62-3.1-23.57-4.36-23.46-5.54-38.77-1.5-19.49.22-23.71,0-46.52-.39-39.42-5.67-39.19-3.32-62,1.46-14.33,3.23-11.41,12.18-49.85,5.67-24.35,9.13-43.45,11.08-54.27,4.39-24.4,7.1-43.72,7.75-48.75,3.59-27.63,3.1-34.51,7.76-49.84,3.44-11.36,4.55-11,15.51-36.56,13-30.48,9.91-27.84,24.37-63.14,7.3-17.84,11.07-25.77,13.29-39.88,1.94-12.35,4.59-29.26-4.43-35.45-6-4.15-16.23-2.72-22.16,2.22-4.24,3.54-5.52,8.22-6.64,12.18,0,0-5.41,19-12.19,36.56-3,7.88-3,5-18.83,33.23-7.06,12.61-10.59,18.91-13.29,24.37-12.87,25.95-13,35.43-21,37.66-7.29,2-16.91-3-18.83-8.86-1-2.93.43-4.79,1.11-12.18a68.46,68.46,0,0,0,0-12.19c.71-6.18,2.6-22.58,3.32-28.8,2.61-22.69,2.92-25.45,3.32-29.91.46-5,1.7-19.29,2.22-37.66.42-14.82-.14-14.11,0-38.77.07-13.3-.53-26.6,0-39.88.64-16.13,1.82-25.12-4.43-32.13a20.71,20.71,0,0,0-12.19-6.64c-.47-.07-9.18-1.19-15.51,4.43-5.38,4.78-6,11.78-6.64,17.72-1.61,15.91-4.28,31.7-5.54,47.64-1.2,15-1.84,23-3.33,34.34-2,15.17-2.73,15.27-4.43,28.8-2,15.65-3.2,25.5-3.32,38.77-.16,18.3,1.93,29.08-4.43,33.23-.28.18-3.64,2.31-6.65,1.11-5.79-2.31-5.4-15-5.54-26.59-.25-21.56-1.85-.4-3.32-46.52-.94-29.61,0-30.62-1.11-52.07-1.3-26-2.58-23.39-2.21-35.45.61-20,4.13-27.18,2.21-45.41-1.3-12.4-2.55-22.94-10-26.59-7.09-3.49-16.72.84-22.15,5.54-5.17,4.47-8,10.49-11.08,27.69C651,58,650.86,64.71,649.07,84.24c-2.26,24.72-4.43,43.2-4.43,43.2-1.75,14.87-2.19,16.45-2.22,22.16-.06,11.63,1.71,14,4.43,34.34,3.23,24,.64,19.83,3.33,34.34,2.35,12.73,4.91,19,1.11,23.26-3.22,3.6-9.87,4.5-14.41,2.22-4.07-2-5.69-6.27-6.64-8.86-5.27-14.32-7.91-21.48-10-31-3.58-16.55-5.44-12.65-13.29-39.88-5.58-19.34-3.82-18.45-7.76-28.8-5.84-15.36-10-18.14-15.51-33.23-2.57-7.1-1.82-7-6.64-26.59-9.2-37.41-13.19-43-18.84-45.42a17.89,17.89,0,0,0-15.5,1.11c-9.8,5.83-9.9,21.4-10,34.34,0,7.69.72,12.64,4.43,34.34,3.29,19.28,4.94,28.92,5.54,32.13,5.16,27.48,7.74,41.22,11.07,54.28C564.65,228.6,573,232.05,576,262.59c.67,6.82.82,15.62,1.11,33.23.27,16.81.06,29.93-2.22,45.42-1.49,10.14-3,15.59-5.54,21.05-4.18,9.08-9.54,14.77-13.29,18.83-8.32,9-18.47,20-32.13,21.05-4.71.35-10.53-.43-26.58-10a217.09,217.09,0,0,1-38.77-28.81c-16.15-14.73-13.11-14.75-23.27-23.26-12.13-10.16-36.49-30.56-58.71-23.26-7.13,2.34-18,8.84-18.83,17.72-1.05,11.06,14.34,15.8,39.88,43.21,10.62,11.39,8.71,11.37,19.94,23.26,18.42,19.49,22.76,18.7,37.66,34.34,19.34,20.29,15.62,25.4,33.24,41,4.89,4.33,14,10.28,32.12,22.16,24.87,16.28,25.35,15.24,37.66,24.37,13.63,10.1,25.67,20.74,31,25.48,6.68,5.92,12,10.91,13.29,12.18,23,22.21,28.77,70.65,29.91,80.87,11.17,100,4.56,101.78,13.3,114.1C680.84,805,800.31,793.9,811.91,762.18Z" style="stroke:#000;stroke-miterlimit:10;opacity:0.47000000000000003"/><path d="M681.22,14.38a8.06,8.06,0,0,1,3.58.75c5.09,2.51,6.16,12.74,7.2,22.63,1.1,10.45.34,16.91-.63,25.08-.64,5.4-1.36,11.52-1.61,19.66A79.58,79.58,0,0,0,690.31,96c.44,4.14,1,9.82,1.67,22.32.56,11.09.58,16.63.6,23.64,0,6.29,0,14.12.5,28.33.87,27.29,1.79,31.44,2.53,34.76.4,1.84.7,3.16.79,11.67,0,.89,0,1.8,0,2.7.1,12.91.2,25.1,8.66,28.47a10.27,10.27,0,0,0,3.83.72,14.44,14.44,0,0,0,7.4-2.28c7.26-4.73,7.07-13.79,6.81-26.32-.07-3.29-.15-7-.11-11.06.12-13,1.31-22.47,3.28-38.19.84-6.63,1.44-10,2.07-13.52.66-3.71,1.35-7.55,2.36-15.26,1.53-11.65,2.22-20.29,3.35-34.59.71-9,1.9-18.08,3-26.9.88-6.74,1.78-13.72,2.48-20.63l0-.14c.54-5.36,1.1-10.9,5-14.35,3.23-2.87,7.54-3.3,9.82-3.3a14.71,14.71,0,0,1,1.65.08h0a15.69,15.69,0,0,1,9.17,5c4.06,4.55,4,10.54,3.38,23.66-.08,1.57-.15,3.21-.22,4.94-.33,8.43-.22,17-.11,25.19.07,4.88.14,9.92.11,14.86-.07,11.65,0,17.56.09,22.32.08,5.17.13,8.6-.09,16.33-.45,15.93-1.44,29.11-2.2,37.35-.4,4.46-.74,7.52-3.31,29.8-.71,6.22-2.61,22.61-3.32,28.8l-.06.51.05.51a62.5,62.5,0,0,1,0,11.28,59.88,59.88,0,0,1-.92,6.26c-.5,2.68-.94,5,0,8,2.33,7,11.35,12.75,20.1,12.75a18.09,18.09,0,0,0,4.82-.64c7.58-2.11,10.08-8.11,14.63-19,2.29-5.5,5.14-12.34,9.56-21.25,2.65-5.35,6.16-11.63,13.17-24.15,7.7-13.74,11.61-20.06,13.95-23.83a48.1,48.1,0,0,0,5.19-10.05c4.6-11.94,11-31.46,12.27-37h.06l.06-.23c1-3.6,2-7,5-9.48a16.52,16.52,0,0,1,10.19-3.5,10.67,10.67,0,0,1,5.93,1.56c6.42,4.41,3.95,20.14,2.32,30.55-1.86,11.83-4.92,19.25-10.49,32.73l-2.49,6c-7.05,17.22-10,25.56-12.56,32.91-2.75,7.83-5.12,14.6-11.78,30.16-4.52,10.56-7.32,16.6-9.36,21a99.81,99.81,0,0,0-6.34,16.06c-3.4,11.21-4.17,18.18-5.57,30.82-.58,5.19-1.29,11.66-2.36,19.84-.9,7-3.68,26.08-7.71,48.5-1.84,10.24-5.27,29.3-11,54-4.31,18.51-6.93,27.32-8.66,33.15a76.72,76.72,0,0,0-3.63,17.32c-1.25,12.25-.42,18.21.73,26.46a247.27,247.27,0,0,1,2.57,36.13c.09,9.25-.14,15.39-.35,20.81a195,195,0,0,0,.36,26.05,155.84,155.84,0,0,0,2.35,18.09c.81,4.6,1.82,10.32,3.22,21,2.2,16.74,2.81,26.36,3.3,34.09a194.07,194.07,0,0,0,3.39,28.23,184.68,184.68,0,0,0,6.79,26.25c1.75,5.28,1.84,5.85,1.18,7.65-2.26,6.19-11,12.26-23.94,16.67-13.64,4.64-30.89,7.2-48.57,7.2-39.08,0-70.8-11.85-84.87-31.69-3.81-5.36-4.05-7.54-5.06-25.79-.85-15.1-2.26-40.38-7.35-86-2-18-9.1-62.32-31.4-83.9-1.63-1.58-7.06-6.67-13.45-12.34-4.72-4.18-17.27-15.31-31.36-25.75a174.52,174.52,0,0,0-15.91-10.62c-4.56-2.78-10.81-6.6-22-13.92-17.93-11.73-26.93-17.62-31.55-21.71a73.33,73.33,0,0,1-15.58-18.47,127.86,127.86,0,0,0-17.35-22.22,146.43,146.43,0,0,0-17-15.42,170.66,170.66,0,0,1-20.6-18.91,135,135,0,0,1-10.09-11.71,144.81,144.81,0,0,0-9.83-11.53,286.73,286.73,0,0,0-26.28-24.67c-9-7.63-12.64-10.87-12.28-14.65.57-6,9.36-11.45,15.42-13.44a26.43,26.43,0,0,1,8.28-1.3c17.42,0,35.79,15.38,45.66,23.64a61.74,61.74,0,0,1,8.46,8.33,154.08,154.08,0,0,0,14.64,14.79A222.78,222.78,0,0,0,495,396c15,8.91,21.83,10.74,27.49,10.74.65,0,1.32,0,2-.08,15.62-1.18,26.6-13.08,35.42-22.64l.31-.33a73.11,73.11,0,0,0,13.86-19.81c2.83-6.16,4.44-12.24,5.94-22.41,2.28-15.49,2.56-28.68,2.27-46.22-.3-17.72-.44-26.62-1.13-33.64-1.75-17.71-5.3-26.92-9.81-38.59a309.48,309.48,0,0,1-12.48-38.6c-3.3-12.89-5.87-26.61-11-54-.59-3.15-2.23-12.77-5.5-31.92l0-.12C538.65,76.52,538,72.06,538,65c.06-11.45.15-25.69,7.52-30.07A12.89,12.89,0,0,1,552,33.21a11.83,11.83,0,0,1,4.58.88c3.28,1.38,7,5.63,15.91,42,2,8.09,3,12.87,3.74,16a70.39,70.39,0,0,0,3.06,11.06,112.34,112.34,0,0,0,8.09,17.49,113.49,113.49,0,0,1,7.45,15.81A59.29,59.29,0,0,1,598,147.28c.74,3.47,1.76,8.23,4.47,17.62,4.07,14.12,6.55,20,8.54,24.72a68.34,68.34,0,0,1,4.67,14.83c2.14,9.88,4.82,17.17,10.17,31.69,1,2.8,3.17,8.63,9.09,11.6a17.52,17.52,0,0,0,7.85,1.79,16.85,16.85,0,0,0,12.52-5.14c4.7-5.26,3.36-11.65,1.5-20.49-.44-2.07-.94-4.43-1.42-7A64,64,0,0,1,654,204.41c-.09-4-.21-9-1.91-21.62-1.07-8-2-13.21-2.73-17.38-1.13-6.4-1.69-9.62-1.66-16.27a88.86,88.86,0,0,1,1-12.22c.3-2.4.67-5.42,1.14-9.38.08-.76,2.21-18.93,4.44-43.33.42-4.58.75-8.46,1-11.89.95-11.19,1.48-17.36,3.33-27.54,3-16.71,5.56-21.46,9.43-24.81,3.22-2.78,8.52-5.59,13.1-5.59h0m0-5c-5.93,0-12.32,3.3-16.37,6.81-5.17,4.47-8,10.49-11.08,27.69-2.47,13.6-2.64,20.35-4.43,39.88-2.26,24.72-4.43,43.2-4.43,43.2-1.75,14.87-2.18,16.45-2.22,22.16-.06,11.62,1.71,14,4.43,34.34,3.23,24,.64,19.83,3.33,34.34,2.35,12.72,4.91,19,1.11,23.26a11.93,11.93,0,0,1-8.8,3.47,12.56,12.56,0,0,1-5.6-1.25c-4.08-2.05-5.7-6.28-6.65-8.87-5.27-14.32-7.91-21.48-10-31-3.58-16.55-5.44-12.66-13.29-39.88-5.58-19.34-3.82-18.45-7.76-28.8-5.84-15.36-10-18.15-15.51-33.24-2.57-7.09-1.82-7-6.64-26.58-9.2-37.41-13.19-43.05-18.83-45.42A17,17,0,0,0,552,28.21a17.8,17.8,0,0,0-9,2.38c-9.8,5.82-9.9,21.4-10,34.34,0,7.69.72,12.64,4.43,34.34,3.29,19.28,4.94,28.92,5.54,32.12,5.16,27.49,7.74,41.23,11.07,54.28,10.85,42.44,19.15,45.9,22.16,76.44.67,6.82.82,15.62,1.11,33.23.27,16.81.06,29.93-2.22,45.42-1.49,10.14-3,15.59-5.54,21-4.18,9.09-9.54,14.78-13.29,18.84-8.32,9-18.47,20-32.12,21-.54,0-1.09.07-1.66.07-4.51,0-10.7-1.58-24.93-10a216.9,216.9,0,0,1-38.77-28.8c-16.15-14.74-13.1-14.75-23.26-23.26-10.36-8.67-29.63-24.81-48.87-24.81a31.37,31.37,0,0,0-9.85,1.55c-7.13,2.34-18,8.84-18.83,17.72-1.05,11.05,14.34,15.8,39.88,43.2,10.62,11.39,8.71,11.37,19.94,23.27,18.42,19.49,22.76,18.7,37.66,34.34,19.35,20.29,15.62,25.4,33.24,41,4.89,4.33,14,10.27,32.12,22.16,24.87,16.27,25.36,15.24,37.67,24.37,13.62,10.1,25.66,20.73,31,25.48,6.68,5.91,12,10.91,13.3,12.18,22.94,22.21,28.76,70.64,29.9,80.87,11.17,100,4.57,101.78,13.3,114.09,17.06,24.07,54.08,33.8,89,33.8,36.83,0,71.25-10.86,77.21-27.15,2.51-6.86-2.35-8.34-7.76-36.56-4.44-23.19-2-26.42-6.64-62-3.1-23.57-4.36-23.46-5.54-38.77-1.5-19.49.22-23.72,0-46.53-.39-39.42-5.66-39.19-3.32-62,1.47-14.33,3.24-11.41,12.18-49.85,5.67-24.36,9.13-43.45,11.08-54.28,4.39-24.39,7.1-43.71,7.75-48.74,3.59-27.64,3.1-34.51,7.76-49.85,3.45-11.36,4.55-11,15.51-36.55,13-30.48,9.91-27.84,24.37-63.14,7.3-17.84,11.07-25.77,13.29-39.88,1.94-12.36,4.59-29.26-4.43-35.45a15.45,15.45,0,0,0-8.76-2.44,21.6,21.6,0,0,0-13.4,4.65c-4.24,3.55-5.52,8.23-6.64,12.19,0,0-5.41,19-12.19,36.56-3,7.88-3,5-18.83,33.23-7.06,12.61-10.59,18.91-13.29,24.37-12.87,26-13,35.43-21.05,37.66a13,13,0,0,1-3.48.46c-6.58,0-13.72-4.4-15.35-9.32-1-2.94.43-4.79,1.11-12.19a68.35,68.35,0,0,0,0-12.18c.71-6.18,2.6-22.58,3.32-28.8,2.61-22.69,2.92-25.45,3.32-29.91.46-5,1.7-19.3,2.22-37.66.42-14.82-.14-14.11,0-38.78.07-13.29-.53-26.59,0-39.87.64-16.14,1.82-25.12-4.43-32.13a20.71,20.71,0,0,0-12.19-6.65,18.56,18.56,0,0,0-2.36-.13c-3.12,0-8.72.63-13.15,4.57-5.38,4.78-6,11.78-6.64,17.72-1.61,15.9-4.28,31.7-5.54,47.63-1.2,15-1.84,23-3.33,34.34-2,15.17-2.73,15.28-4.43,28.8-2,15.66-3.2,25.51-3.32,38.78-.16,18.3,1.93,29.08-4.43,33.23a9.55,9.55,0,0,1-4.67,1.47,5.36,5.36,0,0,1-2-.36c-5.79-2.31-5.4-15-5.54-26.59-.25-21.57-1.85-.41-3.32-46.53-.94-29.6,0-30.61-1.11-52.06-1.3-26-2.58-23.39-2.21-35.45.61-20,4.13-27.18,2.21-45.42-1.3-12.39-2.55-22.93-10-26.58a12.91,12.91,0,0,0-5.78-1.27Z" style="fill:#f2f2f2"/><path d="M620.19,549.09a176.85,176.85,0,0,1,53.13-4.64c21.12,1.44,30.27,6.11,46,3.43,18.67-3.18,32.39-14.26,41-23" style="fill:none;stroke:#f2f2f2;stroke-miterlimit:10;stroke-width:5px"/><path d="M912.11,294.83V19.42" style="fill:none;stroke:#f2f2f2;stroke-miterlimit:10;stroke-width:5px"/><path d="M912.29,535.81v-227" style="fill:none;stroke:#f2f2f2;stroke-miterlimit:10;stroke-width:5px"/><path d="M901.25,533.31h22.07" style="fill:none;stroke:#f2f2f2;stroke-miterlimit:10;stroke-width:5px"/><path d="M901.25,311.15h22.07" style="fill:none;stroke:#f2f2f2;stroke-miterlimit:10;stroke-width:5px"/><path d="M901.25,295.81h22.07" style="fill:none;stroke:#f2f2f2;stroke-miterlimit:10;stroke-width:5px"/><path d="M901.25,18.81H923" style="fill:none;stroke:#f2f2f2;stroke-miterlimit:10;stroke-width:5px"/><text transform="translate(944.38 155.86)" style="font-size:48px;fill:#f2f2f2;font-family:Merienda-Regular_0_wt, Merienda">SHORT</text><text transform="translate(929.6 437.56)" style="font-size:48px;fill:#f2f2f2;font-family:Merienda-Regular_0_wt, Merienda"><tspan style="letter-spacing:-0.034993489583333336em">L</tspan><tspan x="24.58" y="0">ONG</tspan></text><path d="M580.15,602.38h227" style="fill:none;stroke:#f2f2f2;stroke-miterlimit:10;stroke-width:5px"/><path d="M582.65,591.35v22.07" style="fill:none;stroke:#f2f2f2;stroke-miterlimit:10;stroke-width:5px"/><path d="M807,591.84v22.07" style="fill:none;stroke:#f2f2f2;stroke-miterlimit:10;stroke-width:5px"/><text transform="translate(629.26 660.01)" style="font-size:48px;fill:#f4f4f4;font-family:Merienda-Regular_0_wt, Merienda">SHORT</text><text transform="translate(178.04 112.61)" style="font-size:48px;fill:#f4f4f4;font-family:Merienda-Bold, Merienda;font-weight:700;text-decoration:underline">FIRE</text><text transform="translate(137.16 163.49)" style="font-size:36px;fill:#fff;font-family:Merienda-Regular_0_wt, Merienda">Long Palm<tspan x="-24.19" y="43.2">Narr</tspan><tspan x="61.56" y="43.2" style="letter-spacing:-0.014987521701388888em">o</tspan><tspan x="83.23" y="43.2" style="letter-spacing:-0.000013563368055555555em">w Palm</tspan><tspan x="-26.1" y="86.4">Short Fingers</tspan></text><text transform="translate(110.71 403.08)" style="font-size:48px;fill:#f4f4f4;font-family:Merienda-Bold, Merienda;font-weight:700;text-decoration:underline">Character</text><text transform="translate(123.03 453.96)" style="font-size:36px;fill:#fff;font-family:Merienda-Regular_0_wt, Merienda">Spontatious<tspan x="15.23" y="43.2">Optimistic</tspan><tspan x="-1.94" y="86.4">Enthusiastic</tspan><tspan x="23.67" y="129.6">Impulsi</tspan><tspan x="153.84" y="129.6" style="letter-spacing:-0.015001085069444444em">v</tspan><tspan x="171.88" y="129.6">e</tspan><tspan x="0.65" y="172.8">Emotionless</tspan><tspan x="5.17" y="216">Extr</tspan><tspan x="78.42" y="216" style="letter-spacing:-0.014987521701388888em">ov</tspan><tspan x="118.13" y="216">erted</tspan><tspan x="34.94" y="259.2">Intuiti</tspan><tspan x="142.58" y="259.2" style="letter-spacing:-0.015001085069444444em">v</tspan><tspan x="160.61" y="259.2">e</tspan><tspan x="65.57" y="302.4" style="letter-spacing:-0.049994574652777776em">K</tspan><tspan x="87.93" y="302.4">een</tspan></text></svg>