<svg xmlns="http://www.w3.org/2000/svg" xmlns:xlink="http://www.w3.org/1999/xlink" viewBox="0 0 1280 800"><defs><radialGradient id="a" cx="639.5" cy="400" r="532.99" gradientTransform="translate(0 -0.01) scale(1 1.01)" gradientUnits="userSpaceOnUse"><stop offset="0"/><stop offset="0.75" stop-color="#000800"/></radialGradient></defs><rect y="1" width="1279" height="806.5" style="fill:url(#a)"/><path d="M1278.5,1.5V807H.5V1.5h1278m1-1H-.5V808h1280V.5Z"/><path d="M679.74,14.83h0a8.06,8.06,0,0,1,3.58.75c5.09,2.51,6.16,12.73,7.2,22.62,1.1,10.46.34,16.91-.63,25.09-.64,5.4-1.36,11.51-1.61,19.66a79.46,79.46,0,0,0,.55,13.52c.44,4.15,1,9.83,1.67,22.33.56,11.09.58,16.63.6,23.64,0,6.29,0,14.12.5,28.33.87,27.29,1.79,31.43,2.53,34.76.4,1.83.7,3.16.8,11.66,0,.9,0,1.8,0,2.71.1,12.9.2,25.09,8.66,28.47a10.48,10.48,0,0,0,3.84.72,14.28,14.28,0,0,0,7.39-2.29c7.26-4.73,7.07-13.78,6.81-26.31-.07-3.29-.14-7-.11-11.06.12-13,1.31-22.47,3.29-38.2.83-6.62,1.43-10,2.06-13.51.67-3.71,1.35-7.55,2.36-15.26,1.53-11.65,2.22-20.29,3.35-34.6.71-9,1.9-18.07,3-26.9.88-6.74,1.78-13.71,2.48-20.62l0-.15c.54-5.35,1.1-10.89,5-14.34,3.23-2.88,7.54-3.3,9.82-3.3a14.71,14.71,0,0,1,1.65.08h0a15.65,15.65,0,0,1,9.17,5c4.06,4.55,4,10.54,3.38,23.66-.07,1.57-.15,3.21-.22,4.93-.33,8.44-.22,17-.11,25.2.07,4.87.14,9.92.11,14.85-.07,11.66,0,17.57.09,22.32.08,5.18.13,8.6-.09,16.34-.45,15.93-1.44,29.1-2.2,37.35-.4,4.46-.74,7.53-3.31,29.79-.71,6.23-2.6,22.62-3.32,28.8l-.06.51.05.52a62.5,62.5,0,0,1,0,11.28,60.37,60.37,0,0,1-.91,6.26c-.51,2.67-.95,5,0,7.95,2.33,7,11.35,12.74,20.11,12.74a18.07,18.07,0,0,0,4.81-.63c7.58-2.11,10.09-8.11,14.63-19,2.29-5.49,5.14-12.33,9.56-21.24,2.65-5.35,6.16-11.63,13.17-24.15,7.7-13.75,11.61-20.06,14-23.83a47.62,47.62,0,0,0,5.19-10c4.6-11.94,11-31.46,12.27-37l.06,0L851,154c1-3.6,2-7,5-9.49a16.58,16.58,0,0,1,10.2-3.49,10.55,10.55,0,0,1,5.92,1.56c6.42,4.41,4,20.14,2.32,30.55-1.86,11.83-4.92,19.25-10.49,32.72-.78,1.89-1.61,3.89-2.49,6-7.05,17.22-10,25.55-12.56,32.91-2.75,7.83-5.12,14.6-11.78,30.16-4.52,10.56-7.32,16.6-9.36,21a99.92,99.92,0,0,0-6.34,16.07c-3.4,11.21-4.17,18.17-5.57,30.81-.57,5.2-1.29,11.66-2.35,19.84-.91,7-3.69,26.09-7.72,48.5-1.84,10.24-5.27,29.3-11,54-4.31,18.51-6.93,27.32-8.66,33.15a76.72,76.72,0,0,0-3.63,17.32c-1.25,12.24-.42,18.21.73,26.46a245.81,245.81,0,0,1,2.57,36.13c.09,9.25-.14,15.39-.35,20.81a193.58,193.58,0,0,0,.37,26,154,154,0,0,0,2.34,18.09c.81,4.6,1.82,10.32,3.22,21,2.2,16.74,2.81,26.36,3.3,34.08a192.84,192.84,0,0,0,3.4,28.24,184.09,184.09,0,0,0,6.78,26.25c1.76,5.27,1.84,5.84,1.18,7.65-2.26,6.18-11,12.26-23.94,16.67-13.64,4.64-30.89,7.2-48.57,7.2-39.08,0-70.8-11.85-84.87-31.69-3.8-5.36-4-7.55-5.06-25.79-.84-15.1-2.25-40.38-7.35-86-2-18-9.1-62.32-31.4-83.91-1.62-1.57-7-6.66-13.45-12.33-4.72-4.19-17.27-15.31-31.36-25.75a175.91,175.91,0,0,0-15.9-10.62c-4.57-2.79-10.82-6.6-22-13.92-17.93-11.74-26.93-17.63-31.55-21.72A73,73,0,0,1,475,454.13a128.44,128.44,0,0,0-17.34-22.22,147.9,147.9,0,0,0-17.05-15.41A171.52,171.52,0,0,1,420,397.59a135,135,0,0,1-10.09-11.71,144.81,144.81,0,0,0-9.83-11.53,285.31,285.31,0,0,0-26.28-24.67c-9-7.63-12.64-10.88-12.28-14.65.57-6,9.36-11.46,15.42-13.45a26.72,26.72,0,0,1,8.28-1.29c17.42,0,35.79,15.38,45.66,23.64a61.74,61.74,0,0,1,8.46,8.33A155.32,155.32,0,0,0,454,367.05a223.28,223.28,0,0,0,39.59,29.41c15,8.91,21.83,10.74,27.48,10.74.65,0,1.32,0,2-.08,15.62-1.18,26.6-13.08,35.43-22.65l.3-.32a73.05,73.05,0,0,0,13.86-19.81c2.83-6.17,4.44-12.24,5.94-22.41,2.28-15.49,2.56-28.68,2.27-46.23-.3-17.72-.44-26.61-1.13-33.64-1.75-17.7-5.3-26.91-9.8-38.58a308.58,308.58,0,0,1-12.49-38.6c-3.3-12.89-5.87-26.61-11-54-.59-3.17-2.24-12.82-5.52-32-3.74-21.9-4.4-26.37-4.36-33.47.07-11.44.15-25.68,7.52-30.07a13,13,0,0,1,6.45-1.67,11.63,11.63,0,0,1,4.57.88c3.28,1.38,7,5.62,15.91,42,2,8.09,3,12.87,3.74,16a70.39,70.39,0,0,0,3.06,11.06,112.78,112.78,0,0,0,8.09,17.49,113.49,113.49,0,0,1,7.45,15.81,59.29,59.29,0,0,1,3.15,10.79c.74,3.47,1.76,8.22,4.47,17.62,4.07,14.12,6.55,20,8.54,24.72a68.16,68.16,0,0,1,4.67,14.83c2.14,9.88,4.82,17.17,10.17,31.69,1,2.8,3.17,8.62,9.09,11.6a17.53,17.53,0,0,0,7.86,1.78,16.92,16.92,0,0,0,12.52-5.13c4.7-5.26,3.35-11.65,1.49-20.49-.44-2.08-.94-4.43-1.41-7a64.19,64.19,0,0,1-1.38-12.47c-.09-4-.21-9-1.91-21.62-1.07-8-2-13.21-2.73-17.39-1.13-6.4-1.69-9.61-1.65-16.26a86.92,86.92,0,0,1,1-12.22c.3-2.41.67-5.42,1.14-9.38.09-.76,2.21-18.94,4.44-43.33.42-4.58.75-8.47,1-11.89,1-11.2,1.48-17.36,3.33-27.55,3-16.7,5.56-21.46,9.43-24.8,3.22-2.79,8.52-5.59,13.1-5.59m0-5c-5.93,0-12.32,3.3-16.37,6.8-5.17,4.47-8,10.5-11.08,27.7-2.47,13.6-2.64,20.35-4.43,39.88-2.26,24.72-4.43,43.2-4.43,43.2-1.75,14.86-2.18,16.45-2.21,22.15-.07,11.63,1.7,14,4.43,34.34,3.22,24,.63,19.84,3.32,34.34,2.36,12.73,4.91,19,1.11,23.27a11.92,11.92,0,0,1-8.79,3.46,12.57,12.57,0,0,1-5.61-1.25c-4.07-2.05-5.7-6.27-6.65-8.86-5.27-14.32-7.91-21.48-10-31-3.58-16.55-5.44-12.65-13.29-39.88-5.58-19.34-3.82-18.45-7.76-28.8-5.84-15.35-10-18.14-15.51-33.23-2.57-7.09-1.82-7-6.64-26.59-9.2-37.4-13.19-43.05-18.83-45.41a16.77,16.77,0,0,0-6.51-1.27,17.9,17.9,0,0,0-9,2.37c-9.8,5.83-9.9,21.4-10,34.34,0,7.7.72,12.64,4.43,34.34,3.29,19.29,4.94,28.93,5.54,32.13,5.16,27.48,7.74,41.23,11.08,54.28,10.85,42.44,19.14,45.89,22.15,76.43.67,6.82.82,15.63,1.11,33.24.28,16.8.06,29.93-2.22,45.41-1.49,10.15-3,15.6-5.54,21.05-4.17,9.09-9.54,14.77-13.29,18.83-8.32,9-18.47,20-32.12,21.05-.54,0-1.09.07-1.66.07-4.51,0-10.69-1.58-24.93-10a217.41,217.41,0,0,1-38.77-28.8c-16.15-14.74-13.1-14.76-23.26-23.26-10.36-8.68-29.63-24.81-48.87-24.81a31.58,31.58,0,0,0-9.84,1.54c-7.14,2.35-18,8.84-18.84,17.73-1,11.05,14.34,15.8,39.88,43.2,10.62,11.39,8.71,11.37,19.94,23.26,18.42,19.5,22.76,18.7,37.67,34.34,19.34,20.3,15.61,25.41,33.23,41,4.89,4.33,14,10.27,32.12,22.15,24.87,16.28,25.36,15.25,37.67,24.37,13.63,10.11,25.66,20.74,31,25.48,6.68,5.92,12,10.92,13.3,12.19,22.94,22.21,28.76,70.64,29.91,80.86,11.16,100,4.56,101.79,13.29,114.1,17.06,24.07,54.08,33.8,89,33.8,36.83,0,71.25-10.86,77.21-27.15,2.51-6.87-2.35-8.35-7.75-36.56-4.44-23.19-2-26.42-6.65-62-3.1-23.58-4.36-23.47-5.54-38.77-1.5-19.5.22-23.72,0-46.53-.38-39.42-5.66-39.19-3.32-62,1.47-14.34,3.24-11.42,12.18-49.85,5.67-24.36,9.13-43.46,11.08-54.28,4.39-24.39,7.1-43.72,7.75-48.74,3.6-27.64,3.1-34.51,7.76-49.85,3.45-11.36,4.55-11,15.51-36.56,13-30.47,9.91-27.83,24.37-63.14,7.3-17.83,11.08-25.77,13.29-39.88,1.94-12.35,4.59-29.25-4.43-35.44a15.44,15.44,0,0,0-8.75-2.44,21.6,21.6,0,0,0-13.41,4.65c-4.24,3.54-5.51,8.23-6.64,12.19,0,0-5.41,19-12.19,36.55-3,7.89-3,5-18.83,33.23-7.06,12.61-10.59,18.92-13.29,24.38-12.86,25.94-13,35.42-21.05,37.66a13,13,0,0,1-3.47.45c-6.58,0-13.73-4.39-15.36-9.31-1-2.94.44-4.8,1.11-12.19a68.34,68.34,0,0,0,0-12.18c.71-6.19,2.6-22.58,3.32-28.81,2.61-22.69,2.92-25.44,3.32-29.9.46-5,1.7-19.3,2.22-37.67.42-14.81-.14-14.1,0-38.77.07-13.29-.53-26.6,0-39.88.64-16.13,1.83-25.12-4.43-32.12a20.71,20.71,0,0,0-12.19-6.65,18.56,18.56,0,0,0-2.36-.13c-3.12,0-8.72.62-13.15,4.56-5.37,4.78-6,11.79-6.64,17.73-1.61,15.9-4.28,31.69-5.54,47.63-1.19,15-1.84,23-3.32,34.34-2,15.17-2.73,15.27-4.43,28.8-2,15.66-3.21,25.51-3.33,38.77-.16,18.3,1.93,29.09-4.43,33.23a9.4,9.4,0,0,1-4.66,1.48,5.39,5.39,0,0,1-2-.37c-5.79-2.31-5.4-15-5.53-26.58-.25-21.57-1.86-.41-3.33-46.53-.94-29.61,0-30.61-1.11-52.06-1.3-26-2.58-23.39-2.21-35.45.61-20,4.13-27.19,2.21-45.42-1.3-12.39-2.55-22.93-10-26.58a13,13,0,0,0-5.79-1.27Z" style="fill:#999"/><path d="M618.72,549.54a176.84,176.84,0,0,1,53.12-4.65c21.12,1.44,30.27,6.12,46,3.44,18.67-3.18,32.39-14.26,41-23" style="fill:none;stroke:#999;stroke-miterlimit:10;stroke-width:5px"/><path d="M588,345.5a100.19,100.19,0,0,1,43.06,19.58,86.85,86.85,0,0,1,16.54,17.54,91.26,91.26,0,0,1,11.11,21.46,100.37,100.37,0,0,1,5.16,23.55,110.11,110.11,0,0,1,.43,12c0,2-.15,4-.25,6s-.35,4-.64,6a122,122,0,0,1-15.12,44.86c5.9-14.6,10-29.81,11.24-45.27a116.5,116.5,0,0,0-.37-23.1A99,99,0,0,0,654,405.75a90,90,0,0,0-25.44-37.69C617,357.86,602.89,350.58,588,345.5Z" style="fill:#fff"/><path d="M670.5,294.5a241.81,241.81,0,0,0,30,30,210.87,210.87,0,0,0,34.79,23.64,190.89,190.89,0,0,0,19,9.13c1.63.67,3.23,1.39,4.87,2l4.93,1.88c3.32,1.14,6.63,2.31,10,3.36a243.53,243.53,0,0,0,41.45,8.87,159.8,159.8,0,0,1-42.52-5.12,173.57,173.57,0,0,1-40.07-15.74,188.12,188.12,0,0,1-18.3-11.46,176,176,0,0,1-16.68-13.65A160,160,0,0,1,670.5,294.5Z" style="fill:#fff"/><path d="M770,427a245.26,245.26,0,0,0-40.47-36.74,230.77,230.77,0,0,0-23-14.52l-3-1.64-3-1.53-6.08-3.06c-1-.53-2-1-3.08-1.43l-3.12-1.37-3.11-1.37c-1-.46-2.07-.92-3.14-1.3-4.24-1.62-8.41-3.41-12.74-4.76-2.16-.71-4.29-1.48-6.46-2.14l-6.54-1.89a247.94,247.94,0,0,0-26.6-5.91A286.84,286.84,0,0,0,575,345.7a209.22,209.22,0,0,1,55.17-.22,212.84,212.84,0,0,1,27.27,5.2l6.7,1.84c2.23.65,4.42,1.42,6.62,2.13,4.44,1.35,8.73,3.13,13.08,4.76,1.08.4,2.14.88,3.2,1.36l3.17,1.43,3.17,1.42c1.06.48,2.12.94,3.14,1.49l6.19,3.18,3.09,1.6,3,1.74a202.21,202.21,0,0,1,23,15.51A187.19,187.19,0,0,1,770,427Z" style="fill:#fff"/><path d="M690.27,521.5c-1.6-18.3-2.54-46.18,2.58-77,1.35-8.16,3-15.5,4.65-22"/><path d="M690.27,521.5a162.7,162.7,0,0,1-3.19-24.87,202.46,202.46,0,0,1,.13-25.12,188,188,0,0,1,3.34-24.9,138.17,138.17,0,0,1,7-24.11c-1.07,8.31-2.21,16.5-3.1,24.71s-1.63,16.42-2.2,24.64-.91,16.46-1.23,24.73S690.58,513.13,690.27,521.5Z" style="fill:#fff"/><path d="M753.09,564.37c-20.11,4.58-51,10.08-86,10.06-9.27,0-17.66-.39-25.14-1"/><path d="M753.09,564.37q-13.51,3.66-27.35,6.07T698,574.07c-9.32.78-18.67,1.2-28,1.12a237.42,237.42,0,0,1-28-1.75q14,.52,27.95.19c9.3-.24,18.59-.74,27.86-1.55s18.5-1.9,27.72-3.18S743.91,566.05,753.09,564.37Z" style="fill:#fff"/><path d="M759.08,583.4c-20.11,4.58-51,10.08-86,10.07-9.27,0-17.65-.4-25.13-1"/><path d="M759.08,583.4q-13.51,3.66-27.34,6.07t-27.8,3.64c-9.32.78-18.67,1.19-28,1.11A237.25,237.25,0,0,1,648,592.47q14,.54,27.94.19t27.86-1.54c9.27-.78,18.51-1.9,27.73-3.19S749.9,585.09,759.08,583.4Z" style="fill:#fff"/><path d="M743.93,601.34a221.92,221.92,0,0,1-56.17,6.31c-6.08-.13-11.58-.55-16.49-1.11"/><path d="M743.93,601.34a154.86,154.86,0,0,1-17.82,4.36,179.61,179.61,0,0,1-18.21,2.39,165.78,165.78,0,0,1-18.38.37,126.91,126.91,0,0,1-18.25-1.92c6.11.3,12.2.43,18.27.35s12.15-.32,18.2-.8,12.1-1.14,18.13-1.93S737.91,602.38,743.93,601.34Z" style="fill:#fff"/><path d="M901.79,294V18.61" style="fill:none;stroke:#999;stroke-miterlimit:10;stroke-width:5px"/><path d="M902,535V308" style="fill:none;stroke:#999;stroke-miterlimit:10;stroke-width:5px"/><path d="M890.93,532.5H913" style="fill:none;stroke:#999;stroke-miterlimit:10;stroke-width:5px"/><path d="M890.93,310.33H913" style="fill:none;stroke:#999;stroke-miterlimit:10;stroke-width:5px"/><path d="M890.93,295H913" style="fill:none;stroke:#999;stroke-miterlimit:10;stroke-width:5px"/><path d="M890.93,18h21.72" style="fill:none;stroke:#999;stroke-miterlimit:10;stroke-width:5px"/></svg>